<?xml version="1.0" encoding="utf-8"?>
<!-- Generator: Adobe Illustrator 26.0.3, SVG Export Plug-In . SVG Version: 6.00 Build 0)  -->
<svg version="1.1" id="Layer_1" xmlns="http://www.w3.org/2000/svg" xmlns:xlink="http://www.w3.org/1999/xlink" x="0px" y="0px"
	 viewBox="0 0 60 61" style="enable-background:new 0 0 60 61;" xml:space="preserve">
<style type="text/css">
	.st0{fill:#FFFFFF;}
	.st1{fill:none;stroke:#D6DEE1;stroke-width:0.25;stroke-miterlimit:10;}
	.st2{fill:#EE2B24;}
	.st3{fill:#8B5CF6;}
</style>
<g>
	
		<image style="overflow:visible;opacity:0.2;" width="262" height="291" xlink:href="5A8698E1.png"  transform="matrix(0.24 0 0 0.24 -1.24 -4.32)">
	</image>
	<g>
		<path class="st0" d="M12,2C8.2,2,5,5.2,5,9v43.2c0,3.8,3.1,7,7,7h36.4c3.8,0,7-3.1,7-7V15.8L41.6,2H12z"/>
		<path class="st1" d="M12,2C8.2,2,5,5.2,5,9v43.2c0,3.8,3.1,7,7,7h36.4c3.8,0,7-3.1,7-7V15.8L41.6,2H12z"/>
	</g>
</g>
<path class="st2" d="M-420.8-210.6v-10.1h-29.9v-4.1h-21.2v43h16.8h4.4h29.9v-1.3l8.9-27.5H-420.8z M-453.7-221.6v3.5h29.8v7.5H-444
	l-5.1,6h-14.7l-4.9,15.3v-32.3H-453.7z"/>
<g>
	<path class="st3" d="M25.8,38.4c0.2,0.2,0.3,0.4,0.3,0.8S26,39.8,25.8,40s-0.5,0.3-0.8,0.3h-1.7c-0.9,0-1.5-0.2-2-0.7
		c-0.5-0.5-0.7-1.1-0.7-2v-4.3c0-0.6-0.1-1-0.3-1.3c-0.2-0.3-0.6-0.4-1.1-0.5c-0.3,0-0.6-0.1-0.8-0.3c-0.2-0.2-0.3-0.5-0.3-0.8
		s0.1-0.6,0.3-0.8c0.2-0.2,0.5-0.3,0.8-0.3c0.5,0,0.9-0.2,1.1-0.5c0.2-0.3,0.3-0.7,0.3-1.3v-4.3c0-0.8,0.2-1.5,0.7-2
		c0.5-0.5,1.1-0.7,2-0.7H25c0.3,0,0.6,0.1,0.8,0.3c0.2,0.2,0.3,0.4,0.3,0.8c0,0.3-0.1,0.6-0.3,0.8c-0.2,0.2-0.5,0.3-0.8,0.3h-0.7
		c-0.3,0-0.5,0.1-0.7,0.2s-0.2,0.4-0.2,0.7v4.3c0,0.7-0.2,1.2-0.5,1.7c-0.4,0.5-0.8,0.7-1.2,0.8c0.5,0.1,0.9,0.4,1.2,0.8
		c0.4,0.4,0.5,1,0.5,1.7v4.3c0,0.3,0.1,0.6,0.2,0.7s0.4,0.2,0.7,0.2H25C25.3,38.2,25.6,38.2,25.8,38.4z"/>
	<path class="st3" d="M28.8,27.9c-0.3-0.3-0.5-0.7-0.5-1.2c0-0.5,0.2-0.9,0.5-1.2c0.3-0.3,0.7-0.5,1.2-0.5s0.9,0.2,1.2,0.5
		c0.3,0.3,0.5,0.7,0.5,1.2c0,0.5-0.2,0.9-0.5,1.2c-0.3,0.3-0.7,0.5-1.2,0.5S29.1,28.3,28.8,27.9z M31.2,33.6
		c0.3,0.4,0.5,0.9,0.5,1.6c0,1.4-0.5,2.6-1.5,3.7c-0.2,0.2-0.4,0.3-0.6,0.3c-0.2,0-0.4-0.1-0.6-0.2c-0.2-0.1-0.2-0.3-0.2-0.5
		c0-0.2,0.1-0.3,0.2-0.5c0.4-0.5,0.7-1,0.9-1.6c-0.4,0-0.8-0.2-1.1-0.5s-0.4-0.7-0.4-1.1c0-0.5,0.2-0.9,0.5-1.2
		c0.3-0.3,0.7-0.5,1.2-0.5C30.5,33,30.9,33.2,31.2,33.6z"/>
	<path class="st3" d="M41.6,29.6c0.2,0.2,0.3,0.4,0.3,0.8s-0.1,0.6-0.3,0.8c-0.2,0.2-0.4,0.3-0.8,0.3c-0.5,0-0.9,0.2-1.1,0.5
		c-0.2,0.3-0.3,0.7-0.3,1.3v4.3c0,0.8-0.2,1.5-0.7,2c-0.5,0.5-1.1,0.7-2,0.7H35c-0.3,0-0.6-0.1-0.8-0.3c-0.2-0.2-0.3-0.4-0.3-0.8
		s0.1-0.6,0.3-0.8c0.2-0.2,0.5-0.3,0.8-0.3h0.7c0.3,0,0.5-0.1,0.7-0.2s0.2-0.4,0.2-0.7v-4.3c0-0.7,0.2-1.2,0.5-1.7
		c0.3-0.4,0.8-0.7,1.2-0.8c-0.5-0.1-0.9-0.4-1.2-0.8c-0.4-0.5-0.5-1-0.5-1.7v-4.3c0-0.3-0.1-0.6-0.2-0.7s-0.4-0.2-0.7-0.2H35
		c-0.3,0-0.6-0.1-0.8-0.3c-0.2-0.2-0.3-0.4-0.3-0.8c0-0.3,0.1-0.6,0.3-0.8c0.2-0.2,0.5-0.3,0.8-0.3h1.7c0.9,0,1.5,0.2,2,0.7
		c0.5,0.5,0.7,1.1,0.7,2v4.3c0,0.6,0.1,1,0.3,1.3c0.2,0.3,0.6,0.4,1.1,0.5C41.1,29.3,41.4,29.4,41.6,29.6z"/>
</g>
</svg>
