<?xml version="1.0" encoding="utf-8"?>
<!-- Generator: Adobe Illustrator 26.0.3, SVG Export Plug-In . SVG Version: 6.00 Build 0)  -->
<svg version="1.1" id="Layer_1" xmlns="http://www.w3.org/2000/svg" xmlns:xlink="http://www.w3.org/1999/xlink" x="0px" y="0px"
	 viewBox="0 0 60 61" style="enable-background:new 0 0 60 61;" xml:space="preserve">
<style type="text/css">
	.st0{fill:#FFFFFF;}
	.st1{fill:none;stroke:#D6DEE1;stroke-width:0.25;stroke-miterlimit:10;}
	.st2{fill:#EE2B24;}
	.st3{fill:#6366F1;}
</style>
<g>
	
		<image style="overflow:visible;opacity:0.2;" width="262" height="291" xlink:href="1B9BB7AC.png"  transform="matrix(0.24 0 0 0.24 -1.24 -4.32)">
	</image>
	<g>
		<path class="st0" d="M12,2C8.2,2,5,5.2,5,9v43.2c0,3.8,3.1,7,7,7h36.4c3.8,0,7-3.1,7-7V15.8L41.6,2H12z"/>
		<path class="st1" d="M12,2C8.2,2,5,5.2,5,9v43.2c0,3.8,3.1,7,7,7h36.4c3.8,0,7-3.1,7-7V15.8L41.6,2H12z"/>
	</g>
</g>
<path class="st2" d="M-420.8-210.6v-10.1h-29.9v-4.1h-21.2v43h16.8h4.4h29.9v-1.3l8.9-27.5H-420.8z M-453.7-221.6v3.5h29.8v7.5H-444
	l-5.1,6h-14.7l-4.9,15.3v-32.3H-453.7z"/>
<path class="st3" d="M29.6,24.3c0.1,4.4-6.9,4.4-6.9,0C22.7,19.9,29.7,19.9,29.6,24.3z M23.9,24.3c0,3,4.6,3,4.6,0
	C28.5,21.4,23.8,21.4,23.9,24.3z"/>
<path class="st3" d="M33,27.8c1.3-0.2,2.7,0.6,2.8,2c1-0.2,4.4-2.8,5.1-1C41,28.9,41,29,41,29.2v8.5c-0.2,2.6-4.1-0.3-5.2-0.5
	c-0.1,3.5-8.9,1.5-10.8,2c-1.3,0-2.3-1-2.3-2.3C22.3,25.5,23,28,33,27.8z M39.9,37.7v-8.5l-4,1.8v5L39.9,37.7L39.9,37.7z M23.9,30
	c0.4,1-1.1,8.2,1.1,8c1-0.4,10,1.1,9.7-1.1c-0.4-1,1.1-8.2-1.1-8C32.6,29.3,23.6,27.8,23.9,30z"/>
<path class="st3" d="M33,27.8c4.4,0.1,4.4-6.9,0-6.9C28.6,20.8,28.6,27.8,33,27.8z M30.8,24.3c0-3,4.6-3,4.6,0
	C35.4,27.3,30.7,27.3,30.8,24.3z"/>
</svg>
