<?xml version="1.0" encoding="utf-8"?>
<!-- Generator: Adobe Illustrator 26.0.3, SVG Export Plug-In . SVG Version: 6.00 Build 0)  -->
<svg version="1.1" id="Layer_1" xmlns="http://www.w3.org/2000/svg" xmlns:xlink="http://www.w3.org/1999/xlink" x="0px" y="0px"
	 viewBox="0 0 60 61" style="enable-background:new 0 0 60 61;" xml:space="preserve">
<style type="text/css">
	.st0{fill:#FFFFFF;}
	.st1{fill:none;stroke:#D6DEE1;stroke-width:0.25;stroke-miterlimit:10;}
	.st2{fill:#EE2B24;}
	.st3{fill:#0EA5E9;}
</style>
<g>
	
		<image style="overflow:visible;opacity:0.2;" width="262" height="291" xlink:href="43F019A4.png"  transform="matrix(0.24 0 0 0.24 -1.24 -4.32)">
	</image>
	<g>
		<path class="st0" d="M12,2C8.2,2,5,5.2,5,9v43.2c0,3.8,3.1,7,7,7h36.4c3.8,0,7-3.1,7-7V15.8L41.6,2H12z"/>
		<path class="st1" d="M12,2C8.2,2,5,5.2,5,9v43.2c0,3.8,3.1,7,7,7h36.4c3.8,0,7-3.1,7-7V15.8L41.6,2H12z"/>
	</g>
</g>
<path class="st2" d="M-420.8-210.6v-10.1h-29.9v-4.1h-21.2v43h16.8h4.4h29.9v-1.3l8.9-27.5H-420.8z M-453.7-221.6v3.5h29.8v7.5H-444
	l-5.1,6h-14.7l-4.9,15.3v-32.3H-453.7z"/>
<path class="st3" d="M40.1,22.1c-0.1-0.8-0.8-1.3-1.5-1.3L27.2,22c-0.7,0.1-1.3,0.7-1.3,1.4v0.1v1.4v10.4c-0.6-0.4-1.3-0.6-2.1-0.6
	c-1.9,0-3.5,1.3-3.5,2.8c0,1.6,1.6,2.8,3.5,2.8c1.9,0,3.5-1.3,3.5-2.8V24.8l11.3-1.1v8.9c-0.6-0.4-1.3-0.6-2.1-0.6
	c-1.9,0-3.5,1.3-3.5,2.8s1.6,2.8,3.5,2.8s3.5-1.3,3.5-2.8V23.5v-1.3L40.1,22.1L40.1,22.1z"/>
</svg>
