<?xml version="1.0" encoding="utf-8"?>
<!-- Generator: Adobe Illustrator 26.0.3, SVG Export Plug-In . SVG Version: 6.00 Build 0)  -->
<svg version="1.1" id="Layer_1" xmlns="http://www.w3.org/2000/svg" xmlns:xlink="http://www.w3.org/1999/xlink" x="0px" y="0px"
	 viewBox="0 0 60 61" style="enable-background:new 0 0 60 61;" xml:space="preserve">
<style type="text/css">
	.st0{fill:#FFFFFF;}
	.st1{fill:none;stroke:#D6DEE1;stroke-width:0.25;stroke-miterlimit:10;}
	.st2{fill:#10B981;}
	.st3{fill:#EE2B24;}
</style>
<g>
	
		<image style="overflow:visible;opacity:0.2;" width="262" height="291" xlink:href="722DC.png"  transform="matrix(0.24 0 0 0.24 -0.96 -4.08)">
	</image>
	<g>
		<path class="st0" d="M12.2,2.2c-3.8,0-7,3.1-7,7v43.2c0,3.8,3.1,7,7,7h36.4c3.8,0,7-3.1,7-7V16L41.8,2.2H12.2z"/>
		<path class="st1" d="M12.2,2.2c-3.8,0-7,3.1-7,7v43.2c0,3.8,3.1,7,7,7h36.4c3.8,0,7-3.1,7-7V16L41.8,2.2H12.2z"/>
	</g>
</g>
<g>
	<path class="st2" d="M37.5,37.7c0,0.4-0.1,0.7-0.4,1s-0.6,0.4-1,0.4c-0.4,0-0.7-0.2-1-0.5l-4.7-5.8l-4.7,5.8
		c-0.3,0.3-0.6,0.5-1,0.5c-0.4,0-0.7-0.1-1-0.4c-0.3-0.3-0.4-0.6-0.4-1c0-0.3,0.1-0.6,0.3-0.9l5-6.1l-4.8-5.8
		c-0.2-0.2-0.3-0.5-0.3-0.9c0-0.4,0.1-0.7,0.4-1s0.6-0.4,1-0.4c0.4,0,0.7,0.2,1,0.5l4.5,5.5l4.5-5.5c0.3-0.3,0.6-0.5,1-0.5
		c0.4,0,0.7,0.1,1,0.4s0.4,0.6,0.4,1c0,0.3-0.1,0.6-0.3,0.9l-4.8,5.8l5,6.1C37.3,37.1,37.5,37.4,37.5,37.7z"/>
</g>
<path class="st3" d="M-420.8-210.6v-10.1h-29.9v-4.1h-21.2v43h16.8h4.4h29.9v-1.3l8.9-27.5H-420.8z M-453.7-221.6v3.5h29.8v7.5H-444
	l-5.1,6h-14.7l-4.9,15.3v-32.3H-453.7z"/>
</svg>
