<?xml version="1.0" encoding="UTF-8"?>
<svg xmlns="http://www.w3.org/2000/svg" version="1.1" viewBox="0 0 16 16">
  <defs>
    <style>
      .cls-1 {
        fill: #003876;
      }
    </style>
  </defs>
  <!-- Generator: Adobe Illustrator 28.7.1, SVG Export Plug-In . SVG Version: 1.2.0 Build 142)  -->
  <g>
    <g id="Layer_1">
      <path class="cls-1" d="M8,0c.6,0,1,.4,1,1v5.3l4.6-2.6c.5-.3,1.1-.1,1.4.4s.1,1.1-.4,1.4c0,0,0,0,0,0l-4.6,2.6,4.6,2.6c.5.3.6.9.4,1.4-.3.5-.9.6-1.4.4,0,0,0,0,0,0l-4.6-2.6v5.3c0,.6-.4,1-1,1s-1-.4-1-1v-5.3l-4.6,2.6c-.5.3-1.1.1-1.4-.4-.3-.5-.1-1.1.4-1.4,0,0,0,0,0,0l4.6-2.6L1.4,5.4c-.5-.3-.6-.9-.4-1.4.3-.5.9-.6,1.4-.4l4.6,2.6V1c0-.6.4-1,1-1"/>
    </g>
  </g>
</svg>