<?xml version="1.0" encoding="UTF-8"?>
<svg xmlns="http://www.w3.org/2000/svg" version="1.1" viewBox="0 0 16 16">
  <defs>
    <style>
      .cls-1 {
        fill: #003876;
        fill-rule: evenodd;
      }
    </style>
  </defs>
  <!-- Generator: Adobe Illustrator 28.7.1, SVG Export Plug-In . SVG Version: 1.2.0 Build 142)  -->
  <g>
    <g id="Layer_1">
      <path class="cls-1" d="M3.6,1.6c.2-.2.5-.2.7,0,0,0,0,0,0,0l6,6c.2.2.2.5,0,.7,0,0,0,0,0,0l-6,6c-.2.2-.5.2-.7,0-.2-.2-.2-.5,0-.7l5.6-5.6L3.6,2.4c-.2-.2-.2-.5,0-.7,0,0,0,0,0,0"/>
      <path class="cls-1" d="M7.6,1.6c.2-.2.5-.2.7,0,0,0,0,0,0,0l6,6c.2.2.2.5,0,.7,0,0,0,0,0,0l-6,6c-.2.2-.5.2-.7,0s-.2-.5,0-.7l5.6-5.6L7.6,2.4c-.2-.2-.2-.5,0-.7,0,0,0,0,0,0"/>
    </g>
  </g>
</svg>