<svg xmlns="http://www.w3.org/2000/svg" xmlns:xlink="http://www.w3.org/1999/xlink" viewBox="0 0 132 64" xmlns:v="https://vecta.io/nano"><style><![CDATA[.c{fill:#003876}.d{fill:#ee2a24}]]></style><defs><path id="A" d="M-2-1h135.6v67H-2z"/></defs><clipPath id="B"><use xlink:href="#A"/></clipPath><path d="M42.2 12.9c.6-.2 1-.5 1.3-.9s.4-.8.4-1.3c0-.6-.2-1.1-.6-1.5-.4-.3-.9-.5-1.6-.5h-2.9v8.2h1.9v-3.4h.2c.3 0 .5.1.6.3s.2.5.3.8l.3 2.3h2.1l-.5-2.6c-.3-.8-.7-1.3-1.5-1.4m-.3-1.1c-.2.2-.4.3-.7.3h-.4v-1.7h.5c.3 0 .5.1.6.2s.2.3.2.6c0 .2-.1.4-.2.6" clip-path="url(#B)" class="c"/><defs><path id="C" d="M-2-1h135.6v67H-2z"/></defs><clipPath id="D"><use xlink:href="#C"/></clipPath><path d="M45.3 16.9h2.8v-1h-1.7v-1.1H48v-.9h-1.6V13h1.7v-1h-2.8z" clip-path="url(#D)" class="c"/><defs><path id="E" d="M-2-1h135.6v67H-2z"/></defs><clipPath id="F"><use xlink:href="#E"/></clipPath><path d="M51.3 12h-1.8v4.9h1.2v-2h.4a1.69 1.69 0 0 0 1-.3c.3-.2.4-.4.5-.6s.1-.5.1-.7c0-.5-.1-.8-.4-1-.2-.2-.5-.3-1-.3m.1 1.8a.76.76 0 0 1-.4.2h-.3v-1.1h.4c.2 0 .3 0 .4.1s.1.2.1.4-.1.3-.2.4" clip-path="url(#F)" class="c"/><defs><path id="G" d="M-2-1h135.6v67H-2z"/></defs><clipPath id="H"><use xlink:href="#G"/></clipPath><path d="M56.1 15.3c0 .2 0 .4-.1.5-.1.2-.2.2-.4.2s-.3-.1-.3-.2c-.1-.1-.1-.3-.1-.6V12H54v3.4c0 .5.1.9.4 1.2s.7.4 1.2.4.9-.1 1.2-.4.4-.7.4-1.2V12H56l.1 3.3h0z" clip-path="url(#H)" class="c"/><defs><path id="I" d="M-2-1h135.6v67H-2z"/></defs><clipPath id="J"><use xlink:href="#I"/></clipPath><path d="M56.7 10.3h-.9l-.5 1h.7z" clip-path="url(#J)" class="c"/><defs><path id="K" d="M-2-1h135.6v67H-2z"/></defs><clipPath id="L"><use xlink:href="#K"/></clipPath><path d="M60.9 14.3c.3-.1.5-.3.6-.5s.2-.4.2-.7c0-.4-.1-.6-.4-.8-.2-.2-.5-.3-.9-.3h-1.8v4.9h1.6c.5 0 1-.1 1.3-.4s.5-.6.5-1-.1-.6-.3-.8c-.1-.3-.4-.4-.8-.4m-1-1.4h.2c.2 0 .3 0 .4.1s.1.2.1.3c0 .2-.1.3-.2.4s-.2.1-.4.1h-.1v-.9zm.8 2.9c-.1.1-.3.2-.5.2h-.4v-1.2h.4c.2 0 .3.1.5.2a.76.76 0 0 1 .2.4c0 .1 0 .3-.2.4" clip-path="url(#L)" class="c"/><defs><path id="M" d="M-2-1h135.6v67H-2z"/></defs><clipPath id="N"><use xlink:href="#M"/></clipPath><path d="M64.6 12h-1.2v4.9h2.8v-1h-1.6z" clip-path="url(#N)" class="c"/><defs><path id="O" d="M-2-1h135.6v67H-2z"/></defs><clipPath id="P"><use xlink:href="#O"/></clipPath><path d="M67.3 12h1.2v4.9h-1.2z" clip-path="url(#P)" class="c"/><defs><path id="Q" d="M-2-1h135.6v67H-2z"/></defs><clipPath id="R"><use xlink:href="#Q"/></clipPath><path d="M70.8 12.2c-.3.2-.5.6-.7 1-.1.4-.2.8-.2 1.3 0 .7.2 1.3.5 1.8s.8.7 1.3.7c.3 0 .5-.1.8-.2v-1.1c-.2.2-.4.3-.6.3-.3 0-.5-.1-.6-.4-.2-.3-.2-.6-.2-1a3.73 3.73 0 0 1 .2-1.2c.2-.3.4-.4.6-.4s.4.1.6.3v-1.1c-.3-.1-.5-.2-.8-.2-.3-.1-.6 0-.9.2" clip-path="url(#R)" class="c"/><defs><path id="S" d="M-2-1h135.6v67H-2z"/></defs><clipPath id="T"><use xlink:href="#S"/></clipPath><path d="M75 12l-1.3 4.9h1.2l.2-1h.9l.2 1h1.3L76.2 12H75zm.3 3l.3-1.7.3 1.7h-.6z" clip-path="url(#T)" class="c"/><defs><path id="U" d="M-2-1h135.6v67H-2z"/></defs><clipPath id="V"><use xlink:href="#U"/></clipPath><path d="M86.2 8.9c-.5-.4-1.1-.5-1.9-.5h-2.6v8.8H84c1.2 0 2.1-.4 2.7-1.2s.9-1.9.9-3.2c0-.8-.1-1.5-.3-2.2-.2-.9-.5-1.4-1.1-1.7M84 15.4h-.2V10h.3c.5 0 .9.2 1.1.7s.3 1 .3 1.8c.1 1.9-.5 2.9-1.5 2.9" clip-path="url(#V)" class="c"/><defs><path id="W" d="M-2-1h135.6v67H-2z"/></defs><clipPath id="X"><use xlink:href="#W"/></clipPath><path d="M90.3 11.9c-.3 0-.6.1-.9.3s-.5.5-.6.9c-.2.4-.2.8-.2 1.3 0 .7.2 1.3.5 1.8s.8.7 1.3.7c.6 0 1-.2 1.3-.7.4-.5.5-1.1.5-1.9s-.2-1.4-.5-1.9c-.3-.3-.8-.5-1.4-.5m.6 3.6c-.1.3-.3.4-.5.4s-.4-.1-.5-.4-.2-.6-.2-1.1.1-.8.2-1.1.3-.4.5-.4.3.1.5.4c.1.3.2.6.2 1.1s-.1.8-.2 1.1" clip-path="url(#X)" class="c"/><defs><path id="Y" d="M-2-1h135.6v67H-2z"/></defs><clipPath id="Z"><use xlink:href="#Y"/></clipPath><path d="M95.6 13.9l-.7-1.9h-1.3v4.9h1.1V15c0-.5 0-1-.1-1.4h.1c.1.2.2.6.3 1l.5 1.4.5-1.4c.2-.4.3-.7.3-1h.1c0 .5-.1 1-.1 1.4v1.9h1.1V12h-1.3l-.5 1.9z" clip-path="url(#Z)" class="c"/><defs><path id="a" d="M-2-1h135.6v67H-2z"/></defs><clipPath id="b"><use xlink:href="#a"/></clipPath><path d="M99.1 12h1.2v4.9h-1.2z" clip-path="url(#b)" class="c"/><defs><path id="c" d="M-2-1h135.6v67H-2z"/></defs><clipPath id="d"><use xlink:href="#c"/></clipPath><path d="M104 13.9v.8h0l-.4-1.2-.6-1.6h-1.2v4.9h1.1v-2-.8h.1l.4 1.2.6 1.6h1.2V12H104v1.9h0z" clip-path="url(#d)" class="c"/><defs><path id="e" d="M-2-1h135.6v67H-2z"/></defs><clipPath id="f"><use xlink:href="#e"/></clipPath><path d="M106.7 12h1.2v4.9h-1.2z" clip-path="url(#f)" class="c"/><defs><path id="g" d="M-2-1h135.6v67H-2z"/></defs><clipPath id="h"><use xlink:href="#g"/></clipPath><path d="M110.2 12.2c-.3.2-.5.6-.7 1-.1.4-.2.8-.2 1.3 0 .7.2 1.3.5 1.8s.8.7 1.3.7c.3 0 .5-.1.8-.2v-1.1c-.2.2-.4.3-.6.3-.3 0-.5-.1-.6-.4-.2-.3-.2-.6-.2-1a3.73 3.73 0 0 1 .2-1.2c.2-.3.4-.4.6-.4s.4.1.6.3v-1.1c-.3-.1-.5-.2-.8-.2-.3-.1-.6 0-.9.2" clip-path="url(#h)" class="c"/><defs><path id="i" d="M-2-1h135.6v67H-2z"/></defs><clipPath id="j"><use xlink:href="#i"/></clipPath><path d="M114.4 12l-1.3 4.9h1.2l.2-1h.9l.2 1h1.3l-1.3-4.9h-1.2zm.3 3l.3-1.7.3 1.7h-.6z" clip-path="url(#j)" class="c"/><defs><path id="k" d="M-2-1h135.6v67H-2z"/></defs><clipPath id="l"><use xlink:href="#k"/></clipPath><path d="M120.3 13.9v.8h-.1l-.4-1.2-.6-1.6H118v4.9h1.1v-2-.8h.1l.4 1.2.6 1.6h1.2V12h-1.1v1.9h0z" clip-path="url(#l)" class="c"/><defs><path id="m" d="M-2-1h135.6v67H-2z"/></defs><clipPath id="n"><use xlink:href="#m"/></clipPath><path d="M125 12h-1.1l-1.3 4.9h1.2l.2-1h.9l.2 1h1.3L125 12zm-.9 3l.3-1.7.3 1.7h-.6z" clip-path="url(#n)" class="c"/><defs><path id="o" d="M-2-1h135.6v67H-2z"/></defs><clipPath id="p"><use xlink:href="#o"/></clipPath><path d="M54.8 34.3c-.3-.3-.7-.5-1.1-.7-.5-.3-1.2-.2-1.9.2s-1.3.9-2 1.6a18.4 18.4 0 0 0-2.1 2.5c-.2.3-.4.5-.5.7.1-.3.3-.6.4-.9.1-.4.2-.7.3-.9.1-.5-.1-.9-.6-1.3-.4-.4-.7-.7-1.1-.9-.2-.1-.3-.1-.5-.1-.1 0-.3.1-.4.3s-.2.3-.2.3h0 0l-.3 1c-.2.4-.3.7-.3.8-.3.6-.5 1.2-.7 1.8l-.6 1.6c-.2.5-.3.9-.4 1.2l-.2.7c-.1.3-.2.7-.3 1.2s0 1 .1 1.5c.2.6.5 1 .9 1.1.3.1.6.2.8.2h0 0c.1 0 .2-.1.3-.1s.1-.1.1-.1h.1l.1-.1h0l.1-.1c.1-.1.1-.2.2-.2l.1-.2c.8-1.6 1.7-3 2.6-4.1l2.4-3c.7-.8 1.3-1.4 1.8-1.8s.7-.5.8-.5v.1.2h0c-.1.1-.1.3-.2.6s-.2.5-.4.8-.4.6-.7.9-.6.5-.9.8l-.3.3c-.2.3-.2.5 0 .8.1.1.2.3.3.4l.3.3c.1.1.3.2.4.3.3.2.6.3.9.3s.6-.1.9-.3.6-.4.9-.8c.3-.3.6-.7.9-1.1s.5-.9.7-1.4c.1-.1.1-.2.1-.3s0-.1.1-.2v-.1c.2-.5.3-.8.3-1.1.1-.4 0-.7-.3-1.1-.3-.6-.6-.8-.9-1.1" clip-path="url(#p)" class="d"/><defs><path id="q" d="M-2-1h135.6v67H-2z"/></defs><clipPath id="r"><use xlink:href="#q"/></clipPath><path d="M72.5 39.7v1.1a1.69 1.69 0 0 0 .3 1c.2.2.3.5.5.7s.4.3.6.3c.1 0 .2 0 .3-.1.1 0 .1 0 .2-.1h.1c.1-.1.2-.3.3-.5 0-.1.1-.2.1-.3v-.1c.9.2 1.9.1 2.9-.1 1.1-.2 2.1-.7 3.1-1.2 1-.6 1.8-1.3 2.5-2.1a7.2 7.2 0 0 0 1.5-2.7c.3-.9.3-1.7.2-2.5-.2-.7-.4-1.4-.8-1.9s-.8-1-1.3-1.2c-.5-.3-1-.4-1.4-.4-.5 0-1 .2-1.4.5-.5.3-.9.7-1.4 1.2s-.9 1-1.3 1.5c-.1.1-.1.2-.2.2 0-.1.1-.3.1-.4l2.1-5.5c.7-1.8 1.6-3.5 2.5-5v-.3-.1-.1c-.1-.3-.2-.6-.4-.8-.2-.3-.3-.5-.5-.7s-.3-.3-.5-.4c-.1-.1-.2-.2-.3-.2h0c-.3-.2-.6-.1-.8.1l-.2.3v.1l-3.2 7.3-2.7 7.7c-.1.3-.2.6-.2.8-.4.5-.8 1-1.3 1.4-.5.5-1 .9-1.5 1.2s-.9.6-1.2.7-.4.1-.4.1c-.1-.1-.2-.7.8-3.2.2-.5.3-1 .3-1.5 0-.4-.1-.8-.3-1.2-.1-.3-.3-.6-.5-.8s-.3-.4-.4-.4h0c-.2-.2-.4-.2-.6-.2s-.3.1-.4.2l-.5.8c-.1-.3-.3-.5-.5-.6-.3-.2-.7-.4-1.1-.4-.4-.1-.9 0-1.4.1-.6.1-1.2.3-1.8.5s-1.2.6-1.8 1a8.63 8.63 0 0 0-1.8 1.6c-.6.6-1.1 1.4-1.7 2.3-.1.2-.2.4-.3.7s-.3.7-.4 1c-.1.4-.2.8-.2 1.3s0 .9.1 1.4c0 .2.1.3.1.4.1.1.1.3.2.4.1.2.2.3.3.5.1.1.1.2.2.3.2.2.4.3.7.4s.6.1.8.1.4 0 .6-.1c.5-.1.9-.3 1.4-.5.3-.1.5-.3.8-.5l.8-.5 1.5-1.2c.5-.4.9-.8 1.2-1.2l.4-.4c-.1.3-.1.7-.1 1 0 .4.1.8.2 1.1.2.4.3.7.6.9.2.2.4.3.6.3.3.1.5.1.7.1.6-.1 1.2-.4 1.9-.8l1.9-1.3 1.6-1.4.1-.1c-.3.1-.3.2-.3.4m2.8-.3l.1-.5c.2-.3.4-.7.7-1.2l1-1.5 1.1-1.5c.4-.5.8-.9 1.2-1.3s.7-.6 1-.8.5-.2.7-.2c.3.1.4.2.5.4.1.3.2.6.2.8 0 .4-.1.8-.2 1.2-.2 1-.7 1.8-1.2 2.4-.6.6-1.2 1.1-1.9 1.4s-1.3.6-2 .7c-.5.1-.9.2-1.3.2.1 0 .1-.1.1-.1M66 34.6c-.1.4-.3.8-.5 1.2s-.6.9-1.1 1.5-1.1 1.2-1.9 1.9c-.4.3-.8.6-1.2.8s-.7.4-1.1.4-.6.1-.8.1-.3-.1-.3-.1c-.1-.1-.1-.3 0-.8s.3-1 .7-1.6a6.57 6.57 0 0 1 1.2-1.7c.5-.6 1-1 1.5-1.4.6-.4 1.1-.6 1.5-.8.4-.1.7-.2 1-.2h.2c.3 0 .5.1.6.2.2.2.2.3.2.5" clip-path="url(#r)" class="d"/><defs><path id="s" d="M-2-1h135.6v67H-2z"/></defs><clipPath id="t"><use xlink:href="#s"/></clipPath><path d="M104.9 26.4c.2.1.4.2.6.2s.3.1.4.1h.2c.1 0 .3 0 .4-.1.2-.1.5-.3.7-.6.3-.3.5-.6.8-.9s.4-.7.6-1c.2-.4.2-.7.1-1a1.21 1.21 0 0 0-.7-.7c-.3-.1-.7-.2-1.1-.1a1.69 1.69 0 0 0-1 .3c-.4.2-.6.4-.7.6-.2.3-.3.7-.4 1.1s-.1.8-.1 1.1v.4c-.1.2 0 .4.2.6" clip-path="url(#t)" class="d"/><defs><path id="u" d="M-2-1h135.6v67H-2z"/></defs><clipPath id="v"><use xlink:href="#u"/></clipPath><path d="M127 28.7c0-.1-.1-.5-.4-.6-.2 0-.3 0-.5.1h0c-.1.1-.3.3-.4.5a6.73 6.73 0 0 1-1.4 1.5c-.5.5-1 .9-1.5 1.2s-.9.6-1.2.7-.4.1-.4.1c-.1-.1-.2-.7.8-3.2.2-.5.3-1 .3-1.5 0-.4-.1-.8-.3-1.2-.1-.3-.3-.6-.5-.8s-.3-.4-.4-.4h0c-.2-.2-.4-.2-.6-.2s-.3.1-.4.2l-.5.8c-.1-.3-.3-.5-.5-.6-.3-.2-.7-.4-1.1-.4-.4-.1-.9 0-1.4.1-.6.1-1.2.3-1.8.5s-1.2.6-1.8 1a8.63 8.63 0 0 0-1.8 1.6c-.6.6-1.1 1.4-1.7 2.3-.1.2-.2.4-.3.7s-.3.7-.4 1-.1.6-.2.9c-.1.1-.2.2-.2.3-.3.4-.7.7-1 1l-1 .8-.8.5h0c-.1.1-.2.1-.4.2h-.1v-.4c0-.2.1-.4.1-.5h0c0-.1.1-.2.1-.2 0-.1.1-.1.1-.2l.3-.9c.2-.4.3-.8.5-1.2.1-.4.3-.8.4-1.2l.3-1c.1-.2 0-.5-.1-.7s-.2-.4-.4-.6-.3-.4-.5-.5-.3-.3-.5-.4h0c-.2-.1-.3-.1-.5-.1-.1 0-.2.1-.3.3s-.2.3-.2.4l-.3 1c-.2.4-.2.7-.3.8-.2.4-.3.8-.5 1.3v.1c-.1.1-.2.2-.2.3a6.73 6.73 0 0 1-1.4 1.5c-.5.5-1 .9-1.5 1.2s-.9.6-1.2.7-.4.1-.4.1c-.1-.1-.2-.7.8-3.2.2-.5.3-1 .3-1.5 0-.4-.1-.8-.3-1.2-.1-.3-.3-.6-.5-.8s-.3-.4-.4-.4h0c-.2-.1-.4-.2-.6-.2s-.3.1-.4.2l-.5.8c-.1-.3-.3-.5-.5-.6-.3-.2-.7-.4-1.1-.4-.4-.1-.9 0-1.4.1-.6.1-1.2.3-1.8.5s-1.2.6-1.8 1a8.63 8.63 0 0 0-1.8 1.6c-.6.6-1.1 1.4-1.7 2.3-.1.2-.2.4-.3.7s-.3.7-.4 1c-.1.4-.2.8-.2 1.3s0 .9.1 1.4c0 .2.1.3.1.4.1.1.1.3.2.4.1.2.2.3.3.5.1.1.1.2.2.3.2.2.4.3.7.4s.6.1.8.1.4 0 .6-.1c.5-.1.9-.3 1.4-.5.3-.1.5-.3.8-.5l.8-.5 1.5-1.2c.5-.4.9-.8 1.2-1.2l.4-.4c-.1.3-.1.7-.2 1 0 .4.1.8.2 1.1.2.4.3.7.6.9.2.2.4.3.6.3.3.1.5.1.7.1.6-.1 1.2-.4 1.9-.8l1.9-1.3 1.1-.9c-.1.1-.1.3-.2.4l-.6 1.4-.9 1.8-1 1.9-25.5 3.9c-.3.1-.6.2-.7.4s-.2.3-.2.5 0 .4.1.6h0c.3.6.8 1.4 1.5 2.4s1.6 1.9 2.7 2.8 2.6 1.6 4.2 2.1a13.61 13.61 0 0 0 3.6.5c.7 0 1.5-.1 2.3-.2 1.6-.2 3-.6 4.4-1.3 1.3-.7 2.6-1.5 3.7-2.4s2.2-2 3.1-3.1 1.7-2.3 2.5-3.4l24.7-2.9c.1 0 .2-.1.3-.1.1-.1.3-.3.3-.6 0-.1-.1-.3-.2-.6-.1-.2-.2-.5-.3-.7-.1-.3-.3-.5-.4-.6-.2-.2-.4-.3-.6-.3l-22 2.5c.1-.3.2-.5.4-.7.2-.3.3-.6.4-.9h.2.1c.5-.1 1.1-.4 1.7-.8s1.2-.8 1.7-1.3l1.5-1.4.4-.4c0 .1 0 .1.1.1.1.2.2.3.3.5.1.1.1.2.2.3.2.2.4.3.7.4s.6.1.8.1.4 0 .6-.1c.5-.1.9-.3 1.4-.5.3-.1.5-.3.8-.5l.8-.5 1.5-1.2c.5-.4.9-.8 1.2-1.2l.4-.4c-.1.3-.1.7-.1 1 0 .4.1.8.2 1.1.2.4.3.7.6.9.2.2.4.3.6.3.3.1.5.1.7.1.6-.1 1.2-.4 1.9-.8l1.9-1.3 1.6-1.4 1.1-1.1c.5-.5.8-1.1 1-1.5-.4-.7-.4-1.1-.4-1.4m-31.5 2.2c-.1.4-.3.8-.5 1.2s-.6.9-1.1 1.5-1.1 1.2-1.9 1.9c-.4.3-.8.6-1.2.8s-.7.4-1.1.4c-.3.1-.6.1-.8.1s-.3-.1-.3-.1c-.1-.1-.1-.3 0-.8s.3-1 .7-1.6a6.57 6.57 0 0 1 1.2-1.7c.5-.6 1-1 1.5-1.4.6-.4 1.1-.6 1.5-.8.4-.1.7-.2 1-.2h.2c.3 0 .5.1.6.2.2.3.3.4.2.5m-.6 16.3c-.8.9-1.6 1.7-2.5 2.4s-1.8 1.3-2.8 1.8-2 .8-3.1 1c-1 .2-1.5.2-2.3.1-.9-.1-1.7-.2-2.4-.4s-1.4-.5-2-.8-1.1-.7-1.6-1c-1-.8-1.9-1.7-2.6-2.8l21.2-2.7-1.9 2.4m23.4-19.5c-.1.4-.3.8-.5 1.2s-.6.9-1.1 1.5-1.1 1.2-1.9 1.9c-.4.3-.8.6-1.2.8s-.7.4-1.1.4c-.3.1-.6.1-.8.1s-.3-.1-.3-.1c0-.1-.1-.3 0-.8s.3-1 .7-1.6a6.57 6.57 0 0 1 1.2-1.7c.5-.6 1-1 1.5-1.4.6-.4 1.1-.6 1.5-.8.4-.1.7-.2 1-.2h.2c.3 0 .5.1.6.2.2.2.3.4.2.5" clip-path="url(#v)" class="d"/><defs><path id="w" d="M-2-1h135.6v67H-2z"/></defs><clipPath id="x"><use xlink:href="#w"/></clipPath><path d="M46.4 26.6v-.2l5.2-.5 4.9-.4 3.7-.3 2-.2c.4-.1.8-.2 1.1-.5s.5-.6.6-1l.3-1.1c0-.4.1-.7.1-1V21h0c-.1-.3-.4-.5-.7-.4-.4 0-1 .1-1.9.2l-3.1.4-3.9.5-4.4.6-4.4.6-4.1.6-3.3.6c-.2 0-1.6.3-3.8.6C27 25.8 11.3 28.3 6 29.3c-.8.2-1.4.9-1.4 1.7 0 .5.2 1 .6 1.3s.9.5 1.4.4a148.67 148.67 0 0 1 4.4-.8c.6-.1 1-.2 1.2-.2l30.7-4.8-1 2.4a65.84 65.84 0 0 0-1.5 3.6l-1.6 4.2-1.5 4.4c-.5 1.5-.8 3-1.2 4.4-.3 1.5-.6 2.9-.7 4.2-.2 1.3-.2 2.5-.1 3.6s.4 2.1.8 2.8c.1.3.3.4.5.6.2.1.3.2.5.3h.2c.2 0 .4-.1.6-.2s.2-.4.2-1c-.1-.4-.1-1.1-.1-2.1 0-.9.1-2.2.3-3.7s.6-3.4 1.2-5.6 1.4-4.9 2.5-7.8c1.1-3 2.5-6.5 4.4-10.4h0z" clip-path="url(#x)" class="d"/><defs><path id="y" d="M-2-1h135.6v67H-2z"/></defs><clipPath id="z"><use xlink:href="#y"/></clipPath><path d="M36.7 21.5c0 2.3-.6 4.6-1.7 6.6l-.1.2-11.3 20.6c-.2.3-.4.5-.8.5-.3 0-.6-.2-.8-.5L10.5 28.2c-1.1-2-1.7-4.3-1.7-6.6A13.87 13.87 0 0 1 22.7 7.7c7.4 0 13.5 5.8 13.9 13.2.1.1.1.4.1.6" clip-path="url(#z)" class="c"/><defs><path id="AA" d="M-2-1h135.6v67H-2z"/></defs><clipPath id="AB"><use xlink:href="#AA"/></clipPath><path d="M31.4 21.8c-.8-.7-1.6-1.3-2.7-1.5l-2.8-.5v-.1h.2.9c.3 0 .6-.2.6-.5 0-.1 0-.3-.1-.4s-.3-.2-.5-.2c-.4 0-.9 0-1.4.1-.3 0-.7-.1-.8-.5-.1-.5-.3-.9-.6-1.1s-.7-.3-1.3-.1c-.1 0-.2-.1-.3-.1a.76.76 0 0 1-.4-.2c-.5-.1-.9-.3-1.3-.5-.7-.3-1.4-.6-2.2-.5-.6.1-1.1.2-1.7 0-.5-.1-.8-.1-1.1.2-.4.3-.6.8-.6 1.5 0 .3.1.7.2 1 .2.7.4 1.3-.3 1.9-.2.4-.2.6-.2.7.2.3.3.6.2.8-.1.4-.6.5-1.1.7H14v.1c.1.4.4.7.6 1 .3.3.5.5.4.7-.1.6.1 1.1.3 1.5.1.2.2.4.2.6.1.5.6.9 1.1.9h.2c.2 0 .4-.1.5-.2.4-.6.9-1.3 1.3-2.1a1.44 1.44 0 0 1 1.1-.9c.3-.1.7-.1 1 .2.8.6 1.8.5 2.3 0 1-.9 2.1-.8 3.2-.7.4 0 .8.1 1.2.1h.3c.4 0 .9-.1 1.1.2.3.4.6.7.9.7.4 0 .8-.3 1-.6l.4-.4c.4-.3.6-.6.6-.9.3-.3.1-.6-.3-.9" clip-path="url(#AB)" fill="#fff"/><defs><path id="AC" d="M-2-1h135.6v67H-2z"/></defs><clipPath id="AD"><use xlink:href="#AC"/></clipPath><path d="M22.8 10.5c-6.2 0-11.3 5.1-11.3 11.3s5.1 11.3 11.3 11.3S34.1 28 34.1 21.8 29 10.5 22.8 10.5m0 21.6c-5.7 0-10.3-4.6-10.3-10.3s4.6-10.3 10.3-10.3 10.3 4.6 10.3 10.3-4.6 10.3-10.3 10.3" clip-path="url(#AD)" fill="#fff"/></svg>