<?xml version="1.0" encoding="utf-8"?>
<!-- Generator: Adobe Illustrator 26.0.3, SVG Export Plug-In . SVG Version: 6.00 Build 0)  -->
<svg version="1.1" id="Layer_1" xmlns="http://www.w3.org/2000/svg" xmlns:xlink="http://www.w3.org/1999/xlink" x="0px" y="0px"
	 viewBox="0 0 60 61" style="enable-background:new 0 0 60 61;" xml:space="preserve">
<style type="text/css">
	.st0{fill:#EE2B24;}
	.st1{fill:none;stroke:#D6DEE1;stroke-width:0.25;stroke-miterlimit:10;}
	.st2{fill:none;stroke:#FF4C4C;stroke-width:2;stroke-miterlimit:10;}
</style>
<path class="st0" d="M-420.8-210.6v-10.1h-29.9v-4.1h-21.2v43h16.8h4.4h29.9v-1.3l8.9-27.5H-420.8z M-453.7-221.6v3.5h29.8v7.5H-444
	l-5.1,6h-14.7l-4.9,15.3v-32.3H-453.7z"/>
<path class="st1" d="M12.5,1.8c-3.8,0-7,3.1-7,7V52c0,3.8,3.1,7,7,7h36.4c3.8,0,7-3.1,7-7V15.5L42.1,1.8H12.5z"/>
<path class="st2" d="M30.8,22.5c-0.8-5.9-5.9,1.4,1.1,8.1c2.6,3.3,4.6,5.2,6.2,5.7c2.4,0.6,3.8-1.4,1.4-2.4c-2.4-1-6.6-0.7-9-0.3
	c-10.1,1.1-12.3,9.5-7.3,6.1C26.6,35.5,31.1,28,30.8,22.5L30.8,22.5z"/>
</svg>
