<?xml version="1.0" encoding="utf-8"?>
<!-- Generator: Adobe Illustrator 26.0.3, SVG Export Plug-In . SVG Version: 6.00 Build 0)  -->
<svg version="1.1" id="Layer_1" xmlns="http://www.w3.org/2000/svg" xmlns:xlink="http://www.w3.org/1999/xlink" x="0px" y="0px"
	 viewBox="0 0 60 61" style="enable-background:new 0 0 60 61;" xml:space="preserve">
<style type="text/css">
	.st0{fill:#FFFFFF;}
	.st1{fill:none;stroke:#D6DEE1;stroke-width:0.25;stroke-miterlimit:10;}
	.st2{fill:#EE2B24;}
	.st3{fill:#0EA5E9;}
</style>
<g>
	
		<image style="overflow:visible;opacity:0.2;" width="262" height="290" xlink:href="95C13B17.png"  transform="matrix(0.24 0 0 0.24 -0.96 -4.12)">
	</image>
	<g>
		<path class="st0" d="M12.2,2.1c-3.8,0-7,3.1-7,7v43.2c0,3.8,3.1,7,7,7h36.4c3.8,0,7-3.1,7-7V15.8L41.8,2.1H12.2z"/>
		<path class="st1" d="M12.2,2.1c-3.8,0-7,3.1-7,7v43.2c0,3.8,3.1,7,7,7h36.4c3.8,0,7-3.1,7-7V15.8L41.8,2.1H12.2z"/>
	</g>
</g>
<path class="st2" d="M-420.8-210.6v-10.1h-29.9v-4.1h-21.2v43h16.8h4.4h29.9v-1.3l8.9-27.5H-420.8z M-453.7-221.6v3.5h29.8v7.5H-444
	l-5.1,6h-14.7l-4.9,15.3v-32.3H-453.7z"/>
<g>
	<path class="st3" d="M39.9,22.9c0.2-0.1,0.5-0.2,0.8-0.2c0.4,0,0.7,0.1,0.9,0.3c0.3,0.2,0.4,0.5,0.4,0.9c0,0.1,0,0.3-0.1,0.6
		l-4.8,13.2c-0.1,0.3-0.3,0.5-0.6,0.7c-0.3,0.2-0.6,0.2-0.9,0.2c-0.3,0-0.6-0.1-0.9-0.2c-0.3-0.2-0.5-0.4-0.6-0.7l-3.7-10.4
		l-3.7,10.4c-0.1,0.3-0.3,0.5-0.6,0.7s-0.6,0.2-0.9,0.2s-0.6-0.1-0.9-0.2s-0.5-0.4-0.6-0.7L19,24.5c-0.1-0.2-0.1-0.4-0.1-0.6
		c0-0.4,0.1-0.7,0.4-0.9c0.3-0.2,0.6-0.3,1-0.3c0.3,0,0.6,0.1,0.8,0.2c0.2,0.1,0.4,0.4,0.5,0.7l3.8,10.8l3.9-10.8
		c0.1-0.3,0.3-0.5,0.5-0.7c0.2-0.2,0.5-0.3,0.8-0.3c0.3,0,0.5,0.1,0.8,0.3c0.2,0.2,0.4,0.4,0.5,0.7l3.8,10.9l3.8-11
		C39.5,23.3,39.6,23.1,39.9,22.9z"/>
</g>
</svg>
