<?xml version="1.0" encoding="utf-8"?>
<!-- Generator: Adobe Illustrator 26.0.3, SVG Export Plug-In . SVG Version: 6.00 Build 0)  -->
<svg version="1.1" id="Layer_1" xmlns="http://www.w3.org/2000/svg" xmlns:xlink="http://www.w3.org/1999/xlink" x="0px" y="0px"
	 viewBox="0 0 60 61" style="enable-background:new 0 0 60 61;" xml:space="preserve">
<style type="text/css">
	.st0{fill:#FFFFFF;}
	.st1{fill:none;stroke:#D6DEE1;stroke-width:0.25;stroke-miterlimit:10;}
	.st2{fill:#EE2B24;}
	.st3{fill:#EF4444;}
</style>
<g>
	
		<image style="overflow:visible;opacity:0.2;" width="262" height="291" xlink:href="B2299C65.png"  transform="matrix(0.24 0 0 0.24 -1.24 -4.32)">
	</image>
	<g>
		<path class="st0" d="M12,2C8.2,2,5,5.2,5,9v43.2c0,3.8,3.1,7,7,7h36.4c3.8,0,7-3.1,7-7V15.8L41.6,2H12z"/>
		<path class="st1" d="M12,2C8.2,2,5,5.2,5,9v43.2c0,3.8,3.1,7,7,7h36.4c3.8,0,7-3.1,7-7V15.8L41.6,2H12z"/>
	</g>
</g>
<path class="st2" d="M-420.8-210.6v-10.1h-29.9v-4.1h-21.2v43h16.8h4.4h29.9v-1.3l8.9-27.5H-420.8z M-453.7-221.6v3.5h29.8v7.5H-444
	l-5.1,6h-14.7l-4.9,15.3v-32.3H-453.7z"/>
<g>
	<path class="st3" d="M24.4,38.2C24.2,38,24,37.6,24,37.2V24c0-0.4,0.1-0.8,0.4-1s0.6-0.4,1-0.4H31c1.7,0,3,0.4,4,1.3
		c0.9,0.8,1.4,2,1.4,3.6c0,1.5-0.5,2.7-1.4,3.6c-0.9,0.9-2.3,1.3-4,1.3h-4v4.8c0,0.5-0.1,0.8-0.4,1.1c-0.3,0.3-0.6,0.4-1.1,0.4
		C25.1,38.6,24.7,38.5,24.4,38.2z M30.6,30.1c2,0,3-0.9,3-2.6s-1-2.6-3-2.6h-3.7v5.2H30.6z"/>
</g>
</svg>
