<?xml version="1.0" encoding="UTF-8"?>
<svg xmlns="http://www.w3.org/2000/svg" version="1.1" viewBox="0 0 16 16">
  <defs>
    <style>
      .cls-1 {
        fill: #003876;
        fill-rule: evenodd;
      }
    </style>
  </defs>
  <!-- Generator: Adobe Illustrator 28.7.1, SVG Export Plug-In . SVG Version: 1.2.0 Build 142)  -->
  <g>
    <g id="Layer_1">
      <path class="cls-1" d="M4.4,1.3C5.4.5,6.7,0,8,0c2.7,0,4.9,2,5.2,4.6,1.6.2,2.8,1.6,2.8,3.2s-1.5,3.2-3.3,3.2h-2.7c-.3,0-.5-.2-.5-.5s.2-.5.5-.5h2.7c1.3,0,2.3-1,2.3-2.2s-1-2.2-2.3-2.2h-.5v-.5c0-2.2-1.9-4-4.2-4-1.1,0-2.1.4-2.9,1.1-.8.7-1.2,1.4-1.2,2.1v.4h-.4c-1.4.2-2.5,1.3-2.5,2.7s1.2,2.7,2.8,2.7h2.2c.3,0,.5.2.5.5s-.2.5-.5.5h-2.2c-2.1,0-3.8-1.6-3.8-3.7s1.3-3.2,2.9-3.6c.1-.9.7-1.7,1.5-2.4"/>
      <path class="cls-1" d="M7.6,4.1c.2-.2.5-.2.7,0,0,0,0,0,0,0l3,3c.2.2.2.5,0,.7s-.5.2-.7,0l-2.1-2.1v8.8c0,.3-.2.5-.5.5s-.5-.2-.5-.5V5.7l-2.1,2.1c-.2.2-.5.2-.7,0s-.2-.5,0-.7l3-3Z"/>
    </g>
  </g>
</svg>