<?xml version="1.0" encoding="utf-8"?>
<!-- Generator: Adobe Illustrator 21.0.0, SVG Export Plug-In . SVG Version: 6.00 Build 0)  -->
<svg version="1.1" id="Layer_1" xmlns="http://www.w3.org/2000/svg" xmlns:xlink="http://www.w3.org/1999/xlink" x="0px" y="0px"
	 viewBox="0 0 1980 1980" style="enable-background:new 0 0 1980 1980;" xml:space="preserve">
<style type="text/css">
	.st0{fill:url(#SVGID_1_);}
	.st1{fill:#ED232A;}
	.st2{fill:#003876;}
	.st3{fill:#FFFFFF;}
</style>
<linearGradient id="SVGID_1_" gradientUnits="userSpaceOnUse" x1="0" y1="511.1534" x2="1980" y2="511.1534">
	<stop  offset="0" style="stop-color:#FFFFFF"/>
	<stop  offset="1" style="stop-color:#A7A9AC"/>
</linearGradient>
<rect class="st0" width="1980" height="1022.3"/>
<rect y="1022.3" class="st1" width="1980" height="957.7"/>
<g>
	<g>
		<path class="st2" d="M918.4,503.4h150.8c1.4,0,2.5-1.1,2.5-2.5v-5.8c0-1.4-1.1-2.5-2.5-2.5H918.4c-1.4,0-2.5,1.1-2.5,2.5v5.8
			C915.9,502.3,917,503.4,918.4,503.4z"/>
		<path class="st2" d="M1024.7,395.9c-2.5,0-4.5,2-4.5,4.5v78.4c0,2.5,2,4.5,4.5,4.5h14.7c2.5,0,4.5-2,4.5-4.5v-78.4
			c0-2.5-2-4.5-4.5-4.5H1024.7z"/>
		<path class="st2" d="M986.6,395.9c-2.5,0-4.5,2-4.5,4.5v78.4c0,2.5,2,4.5,4.5,4.5h14.7c2.5,0,4.5-2,4.5-4.5v-78.4
			c0-2.5-2-4.5-4.5-4.5H986.6z"/>
		<path class="st2" d="M948.2,395.9c-2.5,0-4.5,2-4.5,4.5v78.4c0,2.5,2,4.5,4.5,4.5h14.7c2.5,0,4.5-2,4.5-4.5v-78.4
			c0-2.5-2-4.5-4.5-4.5H948.2z"/>
		<path class="st2" d="M1015.3,536.2c-0.5-0.5-1.6-1.4-1.6-1.4l0,352.2l129.2,0.4c0,0,0-3.6,0-5.5
			C1142.8,731.8,1091.1,601.5,1015.3,536.2z"/>
		<path class="st2" d="M1281.5,885.9c-0.5-6.2-1.2-12.4-2-18.5c-3.5-35.5-12-83.4-31.5-131.3c-5.5-13.4-11.6-26.9-18.9-40
			c-1.8-3.3-3.8-6.4-5.7-9.7c-39.6-73.5-96.3-129.8-162.3-158.5c0,0,0,0,0,0c-0.1-0.1-0.2-0.1-0.2-0.1l0.5,0.6
			c0,0,18.9,18.2,35.7,44.5c41.4,64.7,69.7,140.4,79.4,233.9c4,38.9,3.8,69.5,3.5,61.8c0.2,5.5,0.4,14.4,0.5,17.5l-0.2,1.1l8.5,0
			l92.4-0.3c0,0,0-0.1,0-0.1l0.5,0C1281.6,886.9,1281.5,886.2,1281.5,885.9z"/>
		<path class="st2" d="M918.4,389.5h150.8c1.4,0,2.5-1.1,2.5-2.5v-5.8c0-1.4-1.1-2.5-2.5-2.5H918.4c-1.4,0-2.5,1.1-2.5,2.5v5.8
			C915.9,388.4,917,389.5,918.4,389.5z"/>
		<path class="st2" d="M1137.5,528.9c4.9,3.6,10.6,8,16.9,13.1c14.4,11.9,26.5,24.2,37.5,35.7c35.8,37.8,55.7,73.7,75.2,112
			c10.8,21.3,17.8,41,24,58.6c1.2,3.3,11,30.5,17.2,61.6c7.3,36.4,11,77.2,11,77.2l55.8,0c0,0,0-0.4-0.1-0.9l2.2,0.8
			c0,0,0-0.3,0-0.4c-6.1-168.4-112.1-311.3-260.3-371.2c-0.2-0.1-0.6-0.2-0.6-0.2s5.6,2.9,12.3,7.5
			C1131.2,524.5,1134.3,526.6,1137.5,528.9z"/>
		<path class="st2" d="M1052.3,370.8c-0.3-33-25.8-59.8-57.3-60.3v-9.8h15.8v-1.7c0,0,0,0,0,0V293c0-0.3-0.2-0.5-0.5-0.5h-2.4
			c-0.3,0-0.5,0.2-0.5,0.5v5.7h-12.5v-22.5h0.3c0.4,0,0.7-0.3,0.7-0.7v-6.2c0-0.4-0.3-0.7-0.7-0.7h-2.8c-0.4,0-0.7,0.3-0.7,0.7v6.2
			c0,0.4,0.3,0.7,0.7,0.7h0.4v22.5h-12.6V293c0-0.3-0.2-0.5-0.5-0.5h-2.4c-0.3,0-0.5,0.2-0.5,0.5v5.8c0,0,0,0,0,0v1.7h16v9.8
			c-31.7,0.6-57.2,27.4-57.3,60.6c0,0.1,0,0.3,0,0.3h116.7C1052.3,371.3,1052.3,370.9,1052.3,370.8z"/>
		<path class="st2" d="M891.2,573c16.8-26.3,35.7-44.5,35.7-44.5l0.5-0.6c0,0-0.2,0.1-0.2,0.2c0,0,0,0,0,0
			c-66,28.7-122.7,85-162.3,158.6c-1.9,3.2-3.8,6.3-5.7,9.6c-7.3,13.2-13.5,26.6-18.9,40c-19.5,47.9-27.9,95.6-31.5,131.2
			c-0.8,6.2-1.4,12.4-2,18.7c0,0.3-0.1,1-0.1,1l0.5,0c0,0,0,0.1,0,0.1l92.3,0.3l8.5,0l-0.2-1.1c0.1-3,0.3-12,0.5-17.5
			c-0.3,7.7-0.5-22.9,3.5-61.8C821.5,713.5,849.9,637.7,891.2,573z"/>
		<path class="st2" d="M1178.4,984.2c2.5,0,4.5-2,4.5-4.5v-34.1c0-2.5-2-4.5-4.5-4.5h-34.1c-2.5,0-4.5,2-4.5,4.5v34.1
			c0,2.5,2,4.5,4.5,4.5H1178.4z"/>
		<path class="st2" d="M1316.4,984.2c2.5,0,4.5-2,4.5-4.5v-34.1c0-2.5-2-4.5-4.5-4.5h-34.1c-2.5,0-4.5,2-4.5,4.5v34.1
			c0,2.5,2,4.5,4.5,4.5H1316.4z"/>
		<path class="st2" d="M1396.9,915.7h-1.9c0,0-0.1,0-0.1,0h-74v-12.9c0-2.1-1.7-3.8-3.8-3.8h-35.6c-2.1,0-3.8,1.7-3.8,3.8v12.9H1183
			v-12.9c0-2.1-1.7-3.8-3.8-3.8h-35.6c-2.1,0-3.8,1.7-3.8,3.8v12.9h-124.2v-12.9c0-2.1-1.7-3.8-3.8-3.8h-35.6
			c-2.1,0-3.8,1.7-3.8,3.8v12.9H848.3v-12.9c0-2.1-1.7-3.8-3.8-3.8h-35.6c-2.1,0-3.8,1.7-3.8,3.8v12.9h-94.8v-12.9
			c0-2.1-1.7-3.8-3.8-3.8h-35.6c-2.1,0-3.8,1.7-3.8,3.8v12.9h-73.6c0,0-0.1,0-0.1,0h-2c-1.4,0-2.5,1.1-2.5,2.5v6.8
			c0,1.4,1.1,2.5,2.5,2.5l805.6,0c1.4,0,2.5-1.1,2.5-2.5v-2.1v-2.7v-2C1399.5,916.9,1398.3,915.7,1396.9,915.7z"/>
		<path class="st2" d="M1011.1,984.1c2.5,0,4.5-2,4.5-4.5v-34.1c0-2.5-2-4.5-4.5-4.5H977c-2.5,0-4.5,2-4.5,4.5v34.1
			c0,2.5,2,4.5,4.5,4.5H1011.1z"/>
		<path class="st2" d="M843.8,984.1c2.5,0,4.5-2,4.5-4.5v-34.1c0-2.5-2-4.5-4.5-4.5h-34.1c-2.5,0-4.5,2-4.5,4.5v34.1
			c0,2.5,2,4.5,4.5,4.5H843.8z"/>
		<path class="st2" d="M974.7,887.2l0-352.3c0,0-1.1,0.9-1.6,1.4C897.2,601.6,845.5,732,845.5,882.2c0,1.8,0,5.5,0,5.5L974.7,887.2z
			"/>
		<path class="st2" d="M613.3,887.2l21.5,0l19.2,0.1l0-0.1l15.2,0c0,0,3.7-40.8,11-77.2c6.2-31.1,16.1-58.2,17.2-61.6
			c6.2-17.6,13.2-37.4,24-58.6c19.5-38.3,39.3-74.2,75.2-112c10.9-11.5,23.1-23.8,37.5-35.7c6.2-5.1,11.9-9.5,16.8-13.1
			c3.2-2.2,6.3-4.4,9.1-6.2c6.8-4.6,12.3-7.5,12.3-7.5s-0.4,0.2-0.6,0.2c-148.3,59.9-254.2,202.9-260.3,371.3c0,0.1,0,0.4,0,0.4
			L613.3,887.2C613.3,887.2,613.3,887.2,613.3,887.2z"/>
		<path class="st2" d="M1394.9,994.3H593.4c-2.5,0-4.5,2-4.5,4.5v19c0,2.5,2,4.5,4.5,4.5h801.6c2.5,0,4.5-2,4.5-4.5v-19
			C1399.4,996.3,1397.4,994.3,1394.9,994.3z"/>
		<path class="st2" d="M705.8,984.1c2.5,0,4.5-2,4.5-4.5v-34.1c0-2.5-2-4.5-4.5-4.5h-34.1c-2.5,0-4.5,2-4.5,4.5v34.1
			c0,2.5,2,4.5,4.5,4.5H705.8z"/>
	</g>
	<g>
		<path class="st3" d="M467.3,1331.5c-0.5,0-1-0.6-1.6-1.9c-0.5-1.3-0.7-2.4-0.7-3.4s0.3-1.6,0.8-1.9c8.5-1.2,14.7-2.8,18.7-5
			c4-2.2,6-6.1,6-11.6v-106.2c0-2.7-0.5-4.6-1.6-5.7c-1.1-1-2.8-1.6-5.5-1.6h-5.9c-19.9,0-32,4.7-36.3,14.1c-1.2,2.4-3.2,3.4-6,2.8
			c-2-0.4-2.8-1.4-2.4-2.9c2.4-9.9,4.1-18.5,5-25.9c0.1-1.9,0.6-3.1,1.6-3.4c1-0.3,2.6-0.3,4.9,0c9.1,0.9,29.1,1.5,59.8,1.5
			c34.2,0,56-0.5,65.7-1.5c2.4-0.3,4.2-0.3,5.4,0c1.2,0.3,1.5,1.5,0.8,3.4c-3.3,10.3-5.5,18.9-6.6,25.9c-0.3,1.9-1.5,2.8-3.6,2.8
			c-2.1,0-3.4-0.9-3.8-2.7c-2.2-9.4-12.2-14.1-30.1-14.2h-6.7c-5.6,0-8.4,2.4-8.4,7.1v106.2c0,5.5,2,9.3,6,11.5
			c4,2.2,10.3,3.9,18.8,5c0.5,0.3,0.8,0.9,0.8,2c0,1-0.2,2.2-0.7,3.5c-0.5,1.3-1.1,1.9-1.7,1.9h-73.2L467.3,1331.5z"/>
		<path class="st3" d="M758.5,1326.5c0.8,0,1.3,0.9,1.2,2.8c-0.1,1.9-0.5,3-1.3,3.3c-4.9,1.3-9.9,2-14.9,2.3
			c-5,0.3-10.3-0.8-15.9-3.5c-5.6-2.6-10.4-6.5-14.4-11.7l-33.1-42.6c-4.3-5.6-9.1-9.2-14.5-11c-5.4-1.8-12.3-2.7-20.9-2.8v41.7
			c0,6.8,2,11.6,5.9,14.1c3.9,2.5,10,4.3,18.2,5.3c0.4,0,0.6,0.6,0.6,1.9c0,1.3-0.2,2.5-0.5,3.8c-0.3,1.3-0.7,1.9-1.3,1.9h-65.3
			c-0.5,0-1.1-0.6-1.5-1.9c-0.4-1.3-0.6-2.5-0.6-3.8c0-1.3,0.3-1.9,0.8-1.9c5.9-0.8,10.3-2.6,13.3-5.5c3.1-2.8,4.5-7.5,4.5-13.9v-96
			c0-6.6-1.5-11.5-4.5-14.4c-3-2.9-7.5-5.3-13.3-6.8c-0.8-0.3-1.1-1.7-0.7-4.1s0.9-3.6,1.9-3.5c6.7,0.8,15,1.3,24.8,1.4
			c5.8,0,13.4-0.2,22.7-0.6c9.4-0.4,15.6-0.6,18.6-0.6c16.7,0,30,3.4,39.7,10.2c9.8,6.8,14.6,16.7,14.6,29.6
			c0,11.7-3.8,20.8-11.5,27.5c-7.7,6.7-16.6,10.3-26.8,10.8v1.1c4.3,0,8.2,1,11.8,3.3c3.6,2.2,7.8,6.2,12.5,12.1l32.1,40.3
			c5.8,7.2,11.8,10.8,18,10.8L758.5,1326.5z M651,1253.3c16.5,0,28.1-1.9,34.6-5.7c6.5-3.8,9.8-10.9,9.8-21.4
			c0-11-3.2-19.6-9.4-25.4c-6.2-5.9-14.3-8.8-24.3-8.8c-6.2,0-10.5,1.4-13,4c-2.5,2.6-3.8,7-3.8,13.3v44.4h6.2L651,1253.3z"/>
		<path class="st3" d="M937.9,1324.1c1.4,0.3,2,1.6,1.8,3.9c-0.2,2.3-0.9,3.5-2.2,3.5h-56.9c-1.4,0-2.1-1.2-2.2-3.5
			c-0.1-2.3,0.4-3.6,1.6-3.9c2.4-0.4,4.4-0.9,5.9-1.6c1.5-0.6,2.9-1.8,4.3-3.4c1.4-1.6,1.9-3.9,1.6-6.8c-0.3-2.9-1.4-6.6-3.3-11.1
			l-2.3-5.4c-0.9-2.4-2.3-4-4.1-4.6c-1.8-0.6-4.5-0.9-8.1-0.9h-43.9c-3.6,0-6.2,0.3-8,0.9c-1.8,0.6-3.2,2.2-4.2,4.6l-2.1,5.4
			c-1.9,4.4-3,8.1-3.1,11c-0.1,3,0.5,5.3,2,6.8s3,2.6,4.8,3.3c1.8,0.6,4.2,1.2,7.3,1.6c1.4,0.3,2,1.6,1.8,3.9
			c-0.2,2.3-1,3.5-2.5,3.5h-46.5c-1.3,0-2-1.2-2.2-3.5c-0.2-2.3,0.3-3.6,1.7-3.9c4.9-0.8,8.9-2.7,11.9-5.6c3-2.8,6.3-8.6,10-17.2
			l36.5-83.5c7.3-16.5,10.9-28.5,10.9-36c0-0.7,2.5-1.7,7.6-2.7c5-1.1,7.8-1.3,8.1-0.5l52.5,122.5c3.7,8.6,7,14.4,10.1,17.5
			c3,3,6.8,4.9,11.5,5.7L937.9,1324.1z M872.2,1278.4c1.2,0,2.1-0.1,2.9-0.2c0.8-0.1,1.5-0.4,2-0.9c0.5-0.5,0.6-1.3,0.2-2.3
			l-25.2-60.2l-25.4,60.2c-0.5,1.3-0.3,2.1,0.7,2.6c1.1,0.5,2.5,0.7,4.3,0.7h40.7L872.2,1278.4z"/>
		<path class="st3" d="M1055.7,1249.3c10.6,0,19.9,3.6,27.7,10.6c7.8,7,11.7,16.3,11.7,27.8c0,13.4-5.5,24-16.5,32s-25.5,12-43.6,12
			c-3,0-8.7-0.2-17.1-0.6c-8.4-0.4-15.5-0.6-21.2-0.6c-14.6,0-25.9,0.4-33.8,1.3c-0.9,0.1-1.6-1-2-3.6c-0.4-2.5-0.2-3.9,0.6-4.2
			c4.3-1.2,7.4-2,9.1-2.5c1.8-0.5,4-1.6,6.6-3.1c2.6-1.5,4.4-3.5,5.4-5.9c0.9-2.4,1.4-5.6,1.4-9.5v-95.7c0-6.2-1.6-10.7-4.7-13.6
			c-3.2-2.8-7.6-4.9-13.4-6.3c-0.8-0.1-1.1-1.4-0.7-3.8s0.9-3.6,1.9-3.5c7,0.8,15.7,1.3,26,1.4c6.3,0,13.9-0.2,22.6-0.6
			c8.7-0.4,14.3-0.6,16.7-0.6c14.6,0,26.7,3.1,36.3,9.1c9.6,6.1,14.4,14.8,14.5,26.2c0.1,8.5-2.4,15.7-7.6,21.5
			c-5.2,5.8-11.7,9.5-19.6,11v1.4L1055.7,1249.3z M1034,1320.6c10.5,0,18.7-2.1,24.5-6.2c5.8-4.1,8.7-11.5,8.7-22
			c0-11.5-3.4-20.4-10-26.7c-6.6-6.3-15.2-9.5-25.8-9.5h-22.2v46.6c0,6.2,1.9,10.7,5.7,13.6c3.8,2.8,10.2,4.2,19.2,4.2H1034z
			 M1012.8,1194.8c-2.2,2.3-3.4,6.4-3.4,12.4v38.4h22.2c16.3,0,24.5-8.1,24.6-24.4c0-9.8-3-17.2-8.7-22.3c-5.8-5-13.4-7.6-22.7-7.6
			C1019,1191.4,1015,1192.5,1012.8,1194.8z"/>
		<path class="st3" d="M1282.3,1324.1c1.4,0.3,2,1.6,1.8,3.9c-0.2,2.3-0.9,3.5-2.2,3.5H1225c-1.4,0-2.1-1.2-2.2-3.5
			c-0.1-2.3,0.4-3.6,1.6-3.9c2.4-0.4,4.4-0.9,5.9-1.6c1.5-0.6,3-1.8,4.3-3.4c1.4-1.6,1.9-3.9,1.6-6.8c-0.3-2.9-1.4-6.6-3.3-11.1
			l-2.3-5.4c-0.9-2.4-2.3-4-4.1-4.6c-1.8-0.6-4.5-0.9-8.1-0.9h-43.9c-3.6,0-6.2,0.3-8,0.9c-1.8,0.6-3.1,2.2-4.2,4.6l-2.1,5.4
			c-1.9,4.4-3,8.1-3.1,11c-0.1,3,0.5,5.3,2,6.8c1.5,1.6,3,2.6,4.8,3.3c1.8,0.6,4.2,1.2,7.3,1.6c1.4,0.3,2,1.6,1.8,3.9
			c-0.2,2.3-1,3.5-2.5,3.5h-46.5c-1.3,0-2-1.2-2.2-3.5c-0.2-2.3,0.3-3.6,1.7-3.9c4.9-0.8,8.9-2.7,11.9-5.6c3-2.8,6.3-8.6,10-17.2
			l36.5-83.5c7.2-16.5,10.9-28.5,10.9-36c0-0.7,2.5-1.7,7.6-2.7c5-1.1,7.8-1.3,8.1-0.5l52.5,122.5c3.7,8.6,7,14.4,10.1,17.5
			c3,3,6.8,4.9,11.5,5.7L1282.3,1324.1z M1216.6,1278.4c1.2,0,2.1-0.1,3-0.2c0.8-0.1,1.5-0.4,2-0.9c0.5-0.5,0.6-1.3,0.2-2.3
			l-25.2-60.2l-25.4,60.2c-0.5,1.3-0.3,2.1,0.7,2.6s2.5,0.7,4.3,0.7h40.7L1216.6,1278.4z"/>
		<path class="st3" d="M1308.8,1377.5c-0.9,0-1.8-0.6-2.6-1.9c-0.8-1.3-1.3-2.4-1.4-3.5c-0.1-1,0.1-1.7,0.6-2
			c5.5-0.5,10.2-4,14.1-10.3c3.9-6.3,5.9-15.4,5.9-27.1v-125.9c0-6.8-1.6-11.6-4.7-14.2c-3.2-2.6-7.6-4.3-13.1-5
			c-0.5,0-0.8-0.6-0.8-1.8c0-1.2,0.2-2.3,0.6-3.4c0.4-1.1,0.9-1.6,1.5-1.6h59.1c0.5,0,1.1,0.5,1.5,1.6c0.4,1,0.6,2.2,0.6,3.4
			c0,1.2-0.3,1.7-0.8,1.7c-5.6,0.7-10,2.4-13.1,5c-3.2,2.6-4.7,7.3-4.7,14.2v125.9c0,10.3-5,20.4-15.1,30.3
			c-10.1,9.9-19.1,14.8-27.2,14.8L1308.8,1377.5z"/>
		<path class="st3" d="M1477.1,1334.9c-22.4,0-40.9-7.4-55.6-22.2c-14.7-14.8-22.1-33.4-22.1-55.8c0-22.2,7.3-41,21.8-56.5
			c14.5-15.5,33.3-23.1,56.5-23.1c22.6,0,41.2,7.3,55.8,22.1c14.6,14.7,22,33.2,22,55.6c0,22.4-7.3,41.3-21.8,56.8
			c-14.5,15.5-33.3,23.1-56.5,23.1H1477.1z M1485.1,1320.5c5.2,0,10.2-0.9,15-2.7c4.8-1.8,9.6-4.6,14.2-8.5c4.6-3.9,8.3-9.5,11-16.7
			c2.7-7.3,4.1-15.7,4.1-25.2c0-21.2-6.1-39.1-18.3-53.5c-12.2-14.4-26.3-21.7-42.3-21.7c-5.2,0-10.1,0.8-14.9,2.6
			c-4.8,1.8-9.5,4.6-14,8.5c-4.5,3.9-8.1,9.4-10.8,16.5c-2.7,7.2-4.1,15.6-4.1,25.2c0,21.4,6.1,39.2,18.3,53.6
			c12.2,14.4,26.3,21.7,42.2,21.7L1485.1,1320.5z"/>
	</g>
</g>
</svg>
