<?xml version="1.0" encoding="utf-8"?>
<!-- Generator: Adobe Illustrator 26.0.3, SVG Export Plug-In . SVG Version: 6.00 Build 0)  -->
<svg version="1.1" id="Layer_1" xmlns="http://www.w3.org/2000/svg" xmlns:xlink="http://www.w3.org/1999/xlink" x="0px" y="0px"
	 viewBox="0 0 62 69" style="enable-background:new 0 0 62 69;" xml:space="preserve">
<style type="text/css">
	.st0{fill:#EE2B24;}
	.st1{fill:#FFFFFF;stroke:#D6DEE1;stroke-width:0.25;stroke-miterlimit:10;}
	.st2{fill:none;stroke:#FF4C4C;stroke-width:2;stroke-miterlimit:10;}
</style>
<path class="st0" d="M-419.8-207.2v-10.1h-29.9v-4.1h-21.2v43h16.8h4.4h29.9v-1.3l8.9-27.5L-419.8-207.2L-419.8-207.2z
	 M-452.7-218.2v3.5h29.8v7.5H-443l-5.1,6h-14.7l-4.9,15.3v-32.3H-452.7z"/>
<path class="st1" d="M9.3,0.5C4.8,0.5,1,4.1,1,8.8v51.4c0,4.5,3.7,8.3,8.3,8.3h43.3c4.5,0,8.3-3.7,8.3-8.3V16.8L44.6,0.5H9.3z"/>
<path class="st2" d="M31.1,25c-1-7.1-7.1,1.7,1.3,9.7c3.1,3.9,5.5,6.2,7.4,6.8c2.9,0.7,4.5-1.7,1.7-2.9c-2.9-1.2-7.9-0.8-10.8-0.4
	c-12.1,1.3-14.7,11.4-8.7,7.3C26.1,40.6,31.5,31.6,31.1,25L31.1,25z"/>
</svg>
