<?xml version="1.0" encoding="utf-8"?>
<!-- Generator: Adobe Illustrator 26.0.3, SVG Export Plug-In . SVG Version: 6.00 Build 0)  -->
<svg version="1.1" id="Layer_1" xmlns="http://www.w3.org/2000/svg" xmlns:xlink="http://www.w3.org/1999/xlink" x="0px" y="0px"
	 viewBox="0 0 62 69" style="enable-background:new 0 0 62 69;" xml:space="preserve">
<style type="text/css">
	.st0{fill:#EE2B24;}
	.st1{fill:#FFFFFF;stroke:#D6DEE1;stroke-width:0.25;stroke-miterlimit:10;}
	.st2{fill:#0EA5E9;}
</style>
<path class="st0" d="M-419.8-206.6v-10.1h-29.9v-4.1h-21.2v43h16.8h4.4h29.9v-1.3l8.9-27.5L-419.8-206.6L-419.8-206.6z
	 M-452.7-217.6v3.5h29.8v7.5H-443l-5.1,6h-14.7l-4.9,15.3v-32.3H-452.7z"/>
<g>
	<path class="st1" d="M9.3,0.5C4.8,0.5,1,4.1,1,8.8v51.4c0,4.5,3.7,8.3,8.3,8.3h43.3c4.5,0,8.3-3.7,8.3-8.3V16.8L44.6,0.5H9.3z"/>
	<g>
		<path class="st2" d="M42.9,25.3c0.2-0.1,0.6-0.2,1-0.2c0.5,0,0.8,0.1,1.1,0.4c0.4,0.2,0.5,0.6,0.5,1.1c0,0.1,0,0.4-0.1,0.7
			l-5.8,16c-0.1,0.4-0.4,0.6-0.7,0.8c-0.4,0.2-0.7,0.2-1.1,0.2c-0.4,0-0.7-0.1-1.1-0.2c-0.4-0.2-0.6-0.5-0.7-0.8l-4.5-12.6
			l-4.5,12.6c-0.1,0.4-0.4,0.6-0.7,0.8s-0.7,0.2-1.1,0.2c-0.4,0-0.7-0.1-1.1-0.2c-0.4-0.1-0.6-0.5-0.7-0.8l-5.7-16
			c-0.1-0.2-0.1-0.5-0.1-0.7c0-0.5,0.1-0.8,0.5-1.1c0.4-0.2,0.7-0.4,1.2-0.4c0.4,0,0.7,0.1,1,0.2c0.2,0.1,0.5,0.5,0.6,0.8l4.6,13.1
			l4.7-13.1c0.1-0.4,0.4-0.6,0.6-0.8c0.2-0.2,0.6-0.4,1-0.4c0.4,0,0.6,0.1,1,0.4c0.2,0.2,0.5,0.5,0.6,0.8l4.6,13.2L42.4,26
			C42.4,25.8,42.5,25.5,42.9,25.3z"/>
	</g>
</g>
</svg>
