<?xml version="1.0" encoding="utf-8"?>
<!-- Generator: Adobe Illustrator 26.0.3, SVG Export Plug-In . SVG Version: 6.00 Build 0)  -->
<svg version="1.1" id="Layer_1" xmlns="http://www.w3.org/2000/svg" xmlns:xlink="http://www.w3.org/1999/xlink" x="0px" y="0px"
	 viewBox="0 0 62 69" style="enable-background:new 0 0 62 69;" xml:space="preserve">
<style type="text/css">
	.st0{fill:#FFFFFF;stroke:#D6DEE1;stroke-width:0.25;stroke-miterlimit:10;}
	.st1{fill:#EE2B24;}
	.st2{fill:#84CC16;}
</style>
<path class="st0" d="M9.3,0.5C4.8,0.5,1,4.1,1,8.8v51.4c0,4.5,3.7,8.3,8.3,8.3h43.3c4.5,0,8.3-3.7,8.3-8.3V16.8L44.6,0.5H9.3z"/>
<path class="st1" d="M-419.9-207v-10.1h-29.9v-4.1H-471v43h16.8h4.4h29.9v-1.3l8.9-27.5L-419.9-207L-419.9-207z M-452.8-218v3.5
	h29.8v7.5h-20.1l-5.1,6h-14.7l-4.9,15.3V-218H-452.8z"/>
<path class="st2" d="M30.8,34.4c-1.5,0-2.9,0-4.3,0c0-2.8,0-5.7,0-8.5c3,0,6,0,9,0c0.1,0.1,0.1,0.3,0.1,0.4c0,2.6,0,5.2-0.1,7.8
	c0,1.7-0.5,3.3-1.4,4.8c-0.8,1.2-1.9,2.1-3.1,2.8c-0.8,0.5-1.6,0.9-2.4,1.3c0,0-0.1,0.1-0.2,0.1c-0.7-1.2-1.3-2.5-2-3.8
	c0.2-0.1,0.3-0.2,0.5-0.2c0.7-0.4,1.4-0.8,2.1-1.3c1-0.8,1.6-1.9,1.8-3.2C30.8,34.5,30.8,34.5,30.8,34.4z"/>
</svg>
