<?xml version="1.0" encoding="utf-8"?>
<!-- Generator: Adobe Illustrator 28.0.0, SVG Export Plug-In . SVG Version: 6.00 Build 0)  -->
<svg version="1.1" id="Layer_1" xmlns="http://www.w3.org/2000/svg" xmlns:xlink="http://www.w3.org/1999/xlink" x="0px" y="0px"
	 viewBox="0 0 81.3 68" style="enable-background:new 0 0 81.3 68;" xml:space="preserve">
<style type="text/css">
	.st0{fill:#FF9C00;}
	.st1{fill:none;}
	.st2{fill:#FFC453;}
</style>
<path class="st0" d="M77,6.6H39.2l-2-3.7c-0.9-1.7-3-3-4.6-3H17.5c-1.7,0-3,1.3-3,3v3.7h-1.8c-2.4,0-4.3,1.9-4.3,4.3v0.4v52v0.4
	c0,2.4,1.9,4.3,4.3,4.3H77c2.4,0,4.3-1.9,4.3-4.3v-0.4v-52v-0.4C81.3,8.6,79.4,6.6,77,6.6z"/>
<rect x="12.5" y="9.9" class="st1" width="64.8" height="54"/>
<path class="st2" d="M12.8,68.1H77c2.4,0,4-1.9,3.6-4.3l-7.7-46.1c-0.4-2.4-2.6-4.3-5-4.3H3.6c-2.4,0-4,1.9-3.6,4.3l7.7,46.1
	C8.1,66.2,10.4,68.1,12.8,68.1z"/>
</svg>
