<?xml version="1.0" encoding="utf-8"?>
<!-- Generator: Adobe Illustrator 26.0.3, SVG Export Plug-In . SVG Version: 6.00 Build 0)  -->
<svg version="1.1" id="Layer_1" xmlns="http://www.w3.org/2000/svg" xmlns:xlink="http://www.w3.org/1999/xlink" x="0px" y="0px"
	 viewBox="0 0 62 69" style="enable-background:new 0 0 62 69;" xml:space="preserve">
<style type="text/css">
	.st0{fill:#FFFFFF;stroke:#D6DEE1;stroke-width:0.25;stroke-miterlimit:10;}
	.st1{fill:#10B981;}
	.st2{fill:#EE2B24;}
</style>
<g>
	<path class="st0" d="M9.3,0.5C4.8,0.5,1,4.1,1,8.8v51.4c0,4.5,3.7,8.3,8.3,8.3h43.3c4.5,0,8.3-3.7,8.3-8.3V16.8L44.6,0.5H9.3z"/>
	<g>
		<path class="st1" d="M40.6,43.7c0,0.5-0.1,0.9-0.5,1.3c-0.4,0.4-0.8,0.5-1.3,0.5c-0.5,0-0.9-0.3-1.3-0.6l-6.1-7.5l-6.1,7.5
			c-0.4,0.4-0.8,0.6-1.3,0.6s-0.9-0.1-1.3-0.5c-0.4-0.4-0.5-0.8-0.5-1.3c0-0.4,0.1-0.8,0.4-1.2l6.5-7.9l-6.2-7.5
			c-0.3-0.3-0.4-0.6-0.4-1.2c0-0.5,0.1-0.9,0.5-1.3s0.8-0.5,1.3-0.5s0.9,0.3,1.3,0.6l5.8,7.1l5.8-7.1c0.4-0.4,0.8-0.6,1.3-0.6
			s0.9,0.1,1.3,0.5c0.4,0.4,0.5,0.8,0.5,1.3c0,0.4-0.1,0.8-0.4,1.2l-6.2,7.5l6.5,7.9C40.3,42.9,40.6,43.3,40.6,43.7z"/>
	</g>
</g>
<path class="st2" d="M-419.8-206.6v-10.1h-29.9v-4.1h-21.2v43h16.8h4.4h29.9v-1.3l8.9-27.5L-419.8-206.6L-419.8-206.6z
	 M-452.7-217.6v3.5h29.8v7.5H-443l-5.1,6h-14.7l-4.9,15.3v-32.3H-452.7z"/>
</svg>
