<?xml version="1.0" encoding="UTF-8"?>
<svg xmlns="http://www.w3.org/2000/svg" version="1.1" viewBox="0 0 81.3 68">
  <defs>
    <style>
      .cls-1 {
        fill: #fff;
      }

      .cls-2 {
        fill: #002c5d;
      }

      .cls-3 {
        fill: #003876;
      }
    </style>
  </defs>
  <!-- Generator: Adobe Illustrator 28.7.1, SVG Export Plug-In . SVG Version: 1.2.0 Build 142)  -->
  <g>
    <g id="Layer_1">
      <g id="Layer_1-2" data-name="Layer_1">
        <path class="cls-2" d="M0,10.9v52.8c0,2.4,1.9,4.3,4.3,4.3h64.3c2.4,0,4.3-1.9,4.3-4.3V10.9c0-2.4-1.9-4.3-4.3-4.3h-1.8v-3.7c0-1.7-1.3-3-3-3h-15.1c-1.6,0-3.7,1.3-4.6,3l-2,3.7H4.2c-2.4,0-4.3,2-4.3,4.3Z"/>
        <rect class="cls-1" x="3.9" y="9.9" width="64.8" height="54"/>
        <path class="cls-3" d="M73.5,63.8l7.7-46.1c.4-2.4-1.2-4.3-3.6-4.3H13.3c-2.4,0-4.6,1.9-5,4.3L.6,63.8c-.4,2.4,1.2,4.3,3.6,4.3h64.2c2.4,0,4.7-1.9,5.1-4.3Z"/>
      </g>
    </g>
  </g>
</svg>