<?xml version="1.0" encoding="utf-8"?>
<!-- Generator: Adobe Illustrator 26.0.3, SVG Export Plug-In . SVG Version: 6.00 Build 0)  -->
<svg version="1.1" id="Layer_1" xmlns="http://www.w3.org/2000/svg" xmlns:xlink="http://www.w3.org/1999/xlink" x="0px" y="0px"
	 viewBox="0 0 62 69" style="enable-background:new 0 0 62 69;" xml:space="preserve">
<style type="text/css">
	.st0{fill:#FFFFFF;stroke:#D6DEE1;stroke-width:0.25;stroke-miterlimit:10;}
	.st1{fill:#EE2B24;}
	.st2{fill:#8B5CF6;}
</style>
<path class="st0" d="M9.3,0.5C4.8,0.5,1,4.1,1,8.8v51.4c0,4.5,3.7,8.3,8.3,8.3h43.3c4.5,0,8.3-3.7,8.3-8.3V16.8L44.6,0.5H9.3z"/>
<path class="st1" d="M-419.8-206.6v-10.1h-29.9v-4.1h-21.2v43h16.8h4.4h29.9v-1.3l8.9-27.5L-419.8-206.6L-419.8-206.6z
	 M-452.7-217.6v3.5h29.8v7.5H-443l-5.1,6h-14.7l-4.9,15.3v-32.3H-452.7z"/>
<g>
	<path class="st2" d="M26.8,42.5c0.2,0.2,0.3,0.4,0.3,0.8s-0.1,0.6-0.3,0.8s-0.5,0.3-0.8,0.3h-1.7c-0.9,0-1.5-0.2-2-0.7
		s-0.7-1.1-0.7-2v-4.3c0-0.6-0.1-1-0.3-1.3s-0.6-0.4-1.1-0.5c-0.3,0-0.6-0.1-0.8-0.3c-0.2-0.2-0.3-0.5-0.3-0.8s0.1-0.6,0.3-0.8
		s0.5-0.3,0.8-0.3c0.5,0,0.9-0.2,1.1-0.5s0.3-0.7,0.3-1.3v-4.3c0-0.8,0.2-1.5,0.7-2s1.1-0.7,2-0.7H26c0.3,0,0.6,0.1,0.8,0.3
		c0.2,0.2,0.3,0.4,0.3,0.8c0,0.3-0.1,0.6-0.3,0.8c-0.2,0.2-0.5,0.3-0.8,0.3h-0.7c-0.3,0-0.5,0.1-0.7,0.2s-0.2,0.4-0.2,0.7V32
		c0,0.7-0.2,1.2-0.5,1.7c-0.4,0.5-0.8,0.7-1.2,0.8c0.5,0.1,0.9,0.4,1.2,0.8c0.4,0.4,0.5,1,0.5,1.7v4.3c0,0.3,0.1,0.6,0.2,0.7
		c0.1,0.1,0.4,0.2,0.7,0.2H26C26.3,42.3,26.6,42.3,26.8,42.5z"/>
	<path class="st2" d="M29.8,32c-0.3-0.3-0.5-0.7-0.5-1.2s0.2-0.9,0.5-1.2c0.3-0.3,0.7-0.5,1.2-0.5s0.9,0.2,1.2,0.5s0.5,0.7,0.5,1.2
		s-0.2,0.9-0.5,1.2c-0.3,0.3-0.7,0.5-1.2,0.5S30.1,32.4,29.8,32z M32.2,37.7c0.3,0.4,0.5,0.9,0.5,1.6c0,1.4-0.5,2.6-1.5,3.7
		c-0.2,0.2-0.4,0.3-0.6,0.3s-0.4-0.1-0.6-0.2c-0.2-0.1-0.2-0.3-0.2-0.5s0.1-0.3,0.2-0.5c0.4-0.5,0.7-1,0.9-1.6
		c-0.4,0-0.8-0.2-1.1-0.5c-0.3-0.3-0.4-0.7-0.4-1.1c0-0.5,0.2-0.9,0.5-1.2s0.7-0.5,1.2-0.5C31.5,37.1,31.9,37.3,32.2,37.7z"/>
	<path class="st2" d="M42.6,33.7c0.2,0.2,0.3,0.4,0.3,0.8c0,0.4-0.1,0.6-0.3,0.8c-0.2,0.2-0.4,0.3-0.8,0.3c-0.5,0-0.9,0.2-1.1,0.5
		c-0.2,0.3-0.3,0.7-0.3,1.3v4.3c0,0.8-0.2,1.5-0.7,2s-1.1,0.7-2,0.7H36c-0.3,0-0.6-0.1-0.8-0.3s-0.3-0.4-0.3-0.8s0.1-0.6,0.3-0.8
		s0.5-0.3,0.8-0.3h0.7c0.3,0,0.5-0.1,0.7-0.2s0.2-0.4,0.2-0.7V37c0-0.7,0.2-1.2,0.5-1.7c0.3-0.4,0.8-0.7,1.2-0.8
		c-0.5-0.1-0.9-0.4-1.2-0.8c-0.4-0.5-0.5-1-0.5-1.7v-4.3c0-0.3-0.1-0.6-0.2-0.7s-0.4-0.2-0.7-0.2H36c-0.3,0-0.6-0.1-0.8-0.3
		c-0.2-0.2-0.3-0.4-0.3-0.8c0-0.3,0.1-0.6,0.3-0.8c0.2-0.2,0.5-0.3,0.8-0.3h1.7c0.9,0,1.5,0.2,2,0.7s0.7,1.1,0.7,2v4.3
		c0,0.6,0.1,1,0.3,1.3s0.6,0.4,1.1,0.5C42.1,33.4,42.4,33.5,42.6,33.7z"/>
</g>
</svg>
