<?xml version="1.0" encoding="utf-8"?>
<!-- Generator: Adobe Illustrator 26.0.3, SVG Export Plug-In . SVG Version: 6.00 Build 0)  -->
<svg version="1.1" id="Capa_1" xmlns="http://www.w3.org/2000/svg" xmlns:xlink="http://www.w3.org/1999/xlink" x="0px" y="0px"
	 viewBox="0 0 5 5" style="enable-background:new 0 0 5 5;" xml:space="preserve">
<style type="text/css">
	.st0{fill:#F0F0F1;}
</style>
<g>
	<path class="st0" d="M2.5,0.2L2.5,0.2L2.5,0.2L2.5,0.2L2.5,0.2L2.5,0.2L2.5,0.2L2.5,0.2L2.5,0.2L2.5,0.2L2.5,0.2L2.5,0.2V0l0,0l0,0
		v0l0,0l0,0l0,0v0l0,0l0,0V0.2L2.5,0.2L2.5,0.2L2.5,0.2L2.5,0.2L2.5,0.2L2.5,0.2L2.5,0.2L2.5,0.2L2.5,0.2L2.5,0.2L2.5,0.2
		c-0.1,0-0.2,0.1-0.2,0.2h0.4C2.7,0.3,2.6,0.2,2.5,0.2z"/>
	<path class="st0" d="M2.2,0.5h0.6c0,0,0,0,0,0v0c0,0,0,0,0,0L2.2,0.5C2.2,0.4,2.2,0.4,2.2,0.5L2.2,0.5L2.2,0.5z"/>
	<path class="st0" d="M2.2,0.9h0.6c0,0,0,0,0,0v0c0,0,0,0,0,0L2.2,0.9C2.2,0.8,2.2,0.8,2.2,0.9L2.2,0.9L2.2,0.9z"/>
	<path class="st0" d="M2.3,0.5C2.3,0.5,2.3,0.5,2.3,0.5l0,0.3c0,0,0,0,0,0h0.1c0,0,0,0,0,0L2.3,0.5C2.4,0.5,2.4,0.5,2.3,0.5L2.3,0.5
		L2.3,0.5z"/>
	<path class="st0" d="M2.5,0.5C2.5,0.5,2.5,0.5,2.5,0.5l0,0.3c0,0,0,0,0,0h0.1c0,0,0,0,0,0L2.5,0.5C2.5,0.5,2.5,0.5,2.5,0.5L2.5,0.5
		L2.5,0.5z"/>
	<path class="st0" d="M2.6,0.5C2.6,0.5,2.6,0.5,2.6,0.5l0,0.3c0,0,0,0,0,0h0.1c0,0,0,0,0,0L2.6,0.5C2.7,0.5,2.7,0.5,2.6,0.5L2.6,0.5
		L2.6,0.5z"/>
	<path class="st0" d="M2.1,0.9c-0.6,0.2-1,0.7-1,1.4h0.2C1.3,1.6,1.6,1.1,2.1,0.9z"/>
	<path class="st0" d="M3.7,2.3h0.2c0-0.7-0.4-1.2-1-1.4C3.4,1.1,3.7,1.6,3.7,2.3z"/>
	<path class="st0" d="M1.5,2.3h0.4C1.8,1.7,2,1.2,2.3,1C1.8,1.1,1.5,1.6,1.5,2.3z"/>
	<path class="st0" d="M3.5,2.3c0-0.6-0.4-1.2-0.8-1.3C3,1.2,3.2,1.7,3.2,2.3H3.5z"/>
	<path class="st0" d="M2.4,1C2.2,1.2,2,1.7,2,2.3h0.5V1z"/>
	<path class="st0" d="M2.6,1v1.3h0.5C3,1.7,2.8,1.2,2.6,1z"/>
	<path class="st0" d="M1.9,2.7C2,2.7,2,2.6,1.9,2.7l0-0.2c0,0,0,0,0,0H1.8c0,0,0,0,0,0v0.1c0,0,0,0,0,0H1.9z"/>
	<path class="st0" d="M1.4,2.7C1.5,2.7,1.5,2.6,1.4,2.7l0-0.2c0,0,0,0,0,0H1.3c0,0,0,0,0,0v0.1c0,0,0,0,0,0H1.4z"/>
	<path class="st0" d="M4,2.4H3.7v0c0,0,0,0,0,0H3.5c0,0,0,0,0,0v0H3.2v0c0,0,0,0,0,0H3c0,0,0,0,0,0v0H2.6v0c0,0,0,0,0,0l0,0H2.4l0,0
		c0,0,0,0,0,0v0H2v0l0,0c0,0,0,0,0,0H1.8c0,0,0,0,0,0v0H1.5v0l0,0c0,0,0,0,0,0H1.3c0,0,0,0,0,0v0H1c0,0,0,0,0,0v0c0,0,0,0,0,0h1.5
		l0,0L4,2.4C4,2.5,4,2.5,4,2.4L4,2.4C4,2.4,4,2.4,4,2.4z"/>
	<path class="st0" d="M4,2.7H2.5l0,0H1c0,0,0,0,0,0v0.1c0,0,0,0,0,0h1.5l0,0H4c0,0,0,0,0,0L4,2.7C4,2.7,4,2.7,4,2.7z"/>
	<path class="st0" d="M3.2,2.7C3.2,2.7,3.2,2.6,3.2,2.7l0-0.2c0,0,0,0,0,0H3.1c0,0,0,0,0,0v0.1c0,0,0,0,0,0H3.2z"/>
	<path class="st0" d="M2.6,2.7C2.6,2.7,2.6,2.6,2.6,2.7l0-0.2c0,0,0,0,0,0l0,0H2.4l0,0c0,0,0,0,0,0v0.1c0,0,0,0,0,0H2.6z"/>
	<path class="st0" d="M3.7,2.7C3.7,2.7,3.7,2.6,3.7,2.7l0-0.2c0,0,0,0,0,0H3.6c0,0,0,0,0,0v0.1c0,0,0,0,0,0H3.7z"/>
</g>
</svg>
